<svg xmlns="http://www.w3.org/2000/svg" version="1.1" xmlns:xlink="http://www.w3.org/1999/xlink" xmlns:svgjs="http://svgjs.dev/svgjs" width="1500" height="1500" viewBox="0 0 1500 1500"><rect width="1500" height="1500" fill="#ffffff"></rect><g transform="matrix(0.6666666666666666,0,0,0.6666666666666666,249.39393939393938,438.5856950067477)"><svg viewBox="0 0 396 247" data-background-color="#ffffff" preserveAspectRatio="xMidYMid meet" height="935" width="1500" xmlns="http://www.w3.org/2000/svg" xmlns:xlink="http://www.w3.org/1999/xlink"><g id="tight-bounds" transform="matrix(1,0,0,1,0.2400000000000091,-0.09999999999999432)"><svg viewBox="0 0 395.52 247.2" height="247.2" width="395.52"><g><svg></svg></g><g><svg viewBox="0 0 395.52 247.2" height="247.2" width="395.52"><g transform="matrix(1,0,0,1,75.54432,112.98792937771346)"><svg viewBox="0 0 244.43135999999998 21.224141244573083" height="21.224141244573083" width="244.43135999999998"><g><svg viewBox="0 0 244.43135999999998 21.224141244573083" height="21.224141244573083" width="244.43135999999998"><g><svg viewBox="0 0 244.43135999999998 21.224141244573083" height="21.224141244573083" width="244.43135999999998"><g><svg viewBox="0 0 244.43135999999998 21.224141244573083" height="21.224141244573083" width="244.43135999999998"><g id="textblocktransform"><svg viewBox="0 0 244.43135999999998 21.224141244573083" height="21.224141244573083" width="244.43135999999998" id="textblock"><g><svg viewBox="0 0 244.43135999999998 21.224141244573083" height="21.224141244573083" width="244.43135999999998"><g transform="matrix(1,0,0,1,0,0)"><svg width="244.43135999999998" viewBox="2.83 -40.5 472.34000000000003 41.01" height="21.224141244573083" data-palette-color="#2a160c"><path d="M16.92 0L16.92-31.37 2.83-31.37 2.83-38.16 38.75-38.16 38.75-31.37 24.66-31.37 24.66 0 16.92 0ZM46.09 0L46.09-40.48 53.32-40.48 53.32-26.61Q55.59-27.86 58.38-28.59 61.18-29.32 64.26-29.32L64.26-29.32Q67.82-29.32 70.66-28.27 73.51-27.22 75.49-25.26 77.46-23.29 78.53-20.48 79.59-17.68 79.59-14.16L79.59-14.16 79.59 0 72.39 0 72.39-13.87Q72.39-15.92 71.73-17.61 71.07-19.31 69.8-20.53 68.53-21.75 66.71-22.42 64.89-23.1 62.6-23.1L62.6-23.1Q59.84-23.1 57.47-22.22 55.1-21.34 53.32-20L53.32-20 53.32 0 46.09 0ZM86.3-14.5L86.3-14.5Q86.3-17.43 87.5-20.1 88.69-22.78 90.94-24.83 93.18-26.88 96.44-28.1 99.7-29.32 103.85-29.32L103.85-29.32Q107.98-29.32 111.29-28.09 114.59-26.86 116.9-24.71 119.21-22.56 120.44-19.65 121.67-16.75 121.67-13.43L121.67-13.43Q121.67-13.01 121.66-12.54 121.65-12.06 121.6-11.67L121.6-11.67 94.36-11.67Q94.82-10.38 95.86-9.3 96.89-8.23 98.46-7.45 100.02-6.67 102.07-6.24 104.12-5.81 106.61-5.81L106.61-5.81Q109.1-5.81 111.57-6.34 114.03-6.86 116.28-7.67L116.28-7.67 118.72-2.15Q117.3-1.49 115.85-0.99 114.4-0.49 112.82-0.16 111.25 0.17 109.53 0.34 107.81 0.51 105.9 0.51L105.9 0.51Q101.04 0.51 97.38-0.66 93.72-1.83 91.25-3.86 88.79-5.88 87.54-8.62 86.3-11.35 86.3-14.5ZM94.36-17.31L114.01-17.31Q113.62-18.51 112.8-19.54 111.98-20.58 110.76-21.35 109.54-22.12 107.93-22.56 106.32-23 104.39-23L104.39-23Q102.34-23 100.65-22.53 98.97-22.07 97.7-21.29 96.43-20.51 95.59-19.48 94.75-18.46 94.36-17.31L94.36-17.31ZM146.94 0L146.94-38.16 167.32-38.16Q171.06-38.16 173.83-37.37 176.6-36.57 178.43-35.18 180.26-33.79 181.15-31.87 182.05-29.96 182.05-27.73L182.05-27.73Q182.05-24.1 179.75-21.36L179.75-21.36Q182.39-19.8 183.68-17.31 184.98-14.82 184.98-11.65L184.98-11.65Q184.98-8.98 184.08-6.84 183.19-4.69 181.37-3.16 179.56-1.64 176.78-0.82 174.01 0 170.25 0L170.25 0 146.94 0ZM154.68-23.51L170.3-23.51Q171.3-23.51 172.26-23.44L172.26-23.44Q173.89-25 173.89-27L173.89-27Q173.89-29.08 172.27-30.21 170.64-31.35 167.52-31.35L167.52-31.35 154.68-31.35 154.68-23.51ZM154.68-6.74L170.45-6.74Q173.57-6.74 175.2-8.08 176.82-9.42 176.82-11.87L176.82-11.87Q176.82-14.31 175.2-15.67 173.57-17.04 170.45-17.04L170.45-17.04 154.68-17.04 154.68-6.74ZM190.17-14.4L190.17-14.4Q190.17-17.5 191.43-20.21 192.69-22.92 195.02-24.95 197.35-26.98 200.66-28.15 203.97-29.32 208.09-29.32L208.09-29.32Q212.22-29.32 215.53-28.15 218.84-26.98 221.17-24.95 223.5-22.92 224.76-20.21 226.01-17.5 226.01-14.4L226.01-14.4Q226.01-11.3 224.76-8.59 223.5-5.88 221.17-3.86 218.84-1.83 215.53-0.66 212.22 0.51 208.09 0.51L208.09 0.51Q203.97 0.51 200.66-0.66 197.35-1.83 195.02-3.86 192.69-5.88 191.43-8.59 190.17-11.3 190.17-14.4ZM197.77-14.4L197.77-14.4Q197.77-12.67 198.46-11.12 199.16-9.57 200.49-8.39 201.82-7.2 203.74-6.51 205.65-5.81 208.09-5.81L208.09-5.81Q210.53-5.81 212.45-6.51 214.37-7.2 215.7-8.39 217.03-9.57 217.72-11.12 218.42-12.67 218.42-14.4L218.42-14.4Q218.42-16.14 217.72-17.7 217.03-19.26 215.7-20.45 214.37-21.63 212.45-22.33 210.53-23.02 208.09-23.02L208.09-23.02Q205.65-23.02 203.74-22.33 201.82-21.63 200.49-20.45 199.16-19.26 198.46-17.7 197.77-16.14 197.77-14.4ZM231.58-14.4L231.58-14.4Q231.58-17.5 232.83-20.21 234.09-22.92 236.42-24.95 238.75-26.98 242.06-28.15 245.37-29.32 249.5-29.32L249.5-29.32Q253.62-29.32 256.93-28.15 260.24-26.98 262.57-24.95 264.9-22.92 266.16-20.21 267.42-17.5 267.42-14.4L267.42-14.4Q267.42-11.3 266.16-8.59 264.9-5.88 262.57-3.86 260.24-1.83 256.93-0.66 253.62 0.51 249.5 0.51L249.5 0.51Q245.37 0.51 242.06-0.66 238.75-1.83 236.42-3.86 234.09-5.88 232.83-8.59 231.58-11.3 231.58-14.4ZM239.17-14.4L239.17-14.4Q239.17-12.67 239.87-11.12 240.56-9.57 241.89-8.39 243.22-7.2 245.14-6.51 247.06-5.81 249.5-5.81L249.5-5.81Q251.94-5.81 253.85-6.51 255.77-7.2 257.1-8.39 258.43-9.57 259.13-11.12 259.82-12.67 259.82-14.4L259.82-14.4Q259.82-16.14 259.13-17.7 258.43-19.26 257.1-20.45 255.77-21.63 253.85-22.33 251.94-23.02 249.5-23.02L249.5-23.02Q247.06-23.02 245.14-22.33 243.22-21.63 241.89-20.45 240.56-19.26 239.87-17.7 239.17-16.14 239.17-14.4ZM274.74 0L274.74-40.5 281.96-40.5 281.96-16.58 295.44-28.81 306.5-28.81 291.44-15.33 307.45 0 296.61 0 285.9-10.38 281.96-6.86 281.96 0 274.74 0ZM310.23-3.37L313.36-8.84Q316.29-7.08 319.8-6.25 323.32-5.42 327.01-5.42L327.01-5.42Q329.5-5.42 331.16-5.76 332.82-6.1 333.82-6.64 334.82-7.18 335.23-7.86 335.65-8.54 335.65-9.25L335.65-9.25Q335.65-10.28 334.76-11.01 333.87-11.74 331.82-11.74L331.82-11.74Q330.86-11.74 329.77-11.62 328.67-11.5 327.46-11.36 326.25-11.23 324.94-11.11 323.64-10.99 322.29-10.99L322.29-10.99Q319.36-10.99 317.3-11.62 315.24-12.26 313.94-13.35 312.65-14.45 312.06-15.95 311.48-17.46 311.48-19.19L311.48-19.19Q311.48-21.39 312.5-23.24 313.53-25.1 315.43-26.45 317.34-27.81 320.04-28.56 322.73-29.32 326.05-29.32L326.05-29.32Q327.79-29.32 329.68-29.11 331.57-28.91 333.4-28.56 335.23-28.22 336.92-27.77 338.6-27.32 339.9-26.81L339.9-26.81 337.63-21.19Q334.87-22.22 332.12-22.81 329.37-23.41 326.47-23.41L326.47-23.41Q324.44-23.41 323.04-23.11 321.64-22.8 320.76-22.3 319.88-21.8 319.47-21.15 319.07-20.51 319.07-19.8L319.07-19.8Q319.07-19.29 319.28-18.87 319.49-18.46 319.96-18.15 320.44-17.85 321.21-17.69 321.98-17.53 323.1-17.53L323.1-17.53Q324.13-17.53 325.27-17.65 326.42-17.77 327.67-17.91 328.91-18.04 330.24-18.16 331.57-18.29 332.96-18.29L332.96-18.29Q335.55-18.29 337.49-17.68 339.43-17.07 340.7-15.97 341.97-14.87 342.61-13.38 343.24-11.89 343.24-10.13L343.24-10.13Q343.24-7.86 342.19-5.91 341.14-3.96 339.07-2.53 336.99-1.1 333.9-0.29 330.81 0.51 326.76 0.51L326.76 0.51Q324.27 0.51 321.95 0.21 319.63-0.1 317.53-0.62 315.43-1.15 313.59-1.86 311.75-2.56 310.23-3.37L310.23-3.37ZM354.08 0L354.08-23.39 347.12-23.39 347.12-28.81 354.08-28.81 354.08-37.77 361.31-37.77 361.31-28.81 368.26-28.81 368.26-23.39 361.31-23.39 361.31 0 354.08 0ZM372.95-14.4L372.95-14.4Q372.95-17.5 374.21-20.21 375.46-22.92 377.79-24.95 380.13-26.98 383.43-28.15 386.74-29.32 390.87-29.32L390.87-29.32Q394.99-29.32 398.3-28.15 401.61-26.98 403.94-24.95 406.27-22.92 407.53-20.21 408.79-17.5 408.79-14.4L408.79-14.4Q408.79-11.3 407.53-8.59 406.27-5.88 403.94-3.86 401.61-1.83 398.3-0.66 394.99 0.51 390.87 0.51L390.87 0.51Q386.74 0.51 383.43-0.66 380.13-1.83 377.79-3.86 375.46-5.88 374.21-8.59 372.95-11.3 372.95-14.4ZM380.54-14.4L380.54-14.4Q380.54-12.67 381.24-11.12 381.93-9.57 383.26-8.39 384.59-7.2 386.51-6.51 388.43-5.81 390.87-5.81L390.87-5.81Q393.31-5.81 395.23-6.51 397.14-7.2 398.47-8.39 399.8-9.57 400.5-11.12 401.2-12.67 401.2-14.4L401.2-14.4Q401.2-16.14 400.5-17.7 399.8-19.26 398.47-20.45 397.14-21.63 395.23-22.33 393.31-23.02 390.87-23.02L390.87-23.02Q388.43-23.02 386.51-22.33 384.59-21.63 383.26-20.45 381.93-19.26 381.24-17.7 380.54-16.14 380.54-14.4ZM416.09 0L416.09-28.81 423.31-28.81 423.31-24.66Q425.7-26.44 428.37-27.73 431.03-29.03 433.66-29.71L433.66-29.71 435.79-23.1Q431.61-22.68 428.45-21.23 425.29-19.78 423.31-17.14L423.31-17.14 423.31 0 416.09 0ZM439.79-14.5L439.79-14.5Q439.79-17.43 440.99-20.1 442.18-22.78 444.43-24.83 446.67-26.88 449.93-28.1 453.19-29.32 457.34-29.32L457.34-29.32Q461.47-29.32 464.78-28.09 468.09-26.86 470.39-24.71 472.7-22.56 473.93-19.65 475.17-16.75 475.17-13.43L475.17-13.43Q475.17-13.01 475.15-12.54 475.14-12.06 475.09-11.67L475.09-11.67 447.85-11.67Q448.31-10.38 449.35-9.3 450.39-8.23 451.95-7.45 453.51-6.67 455.56-6.24 457.61-5.81 460.1-5.81L460.1-5.81Q462.59-5.81 465.06-6.34 467.52-6.86 469.77-7.67L469.77-7.67 472.21-2.15Q470.8-1.49 469.34-0.99 467.89-0.49 466.32-0.16 464.74 0.17 463.02 0.34 461.3 0.51 459.39 0.51L459.39 0.51Q454.54 0.51 450.87-0.66 447.21-1.83 444.75-3.86 442.28-5.88 441.03-8.62 439.79-11.35 439.79-14.5ZM447.85-17.31L467.5-17.31Q467.11-18.51 466.29-19.54 465.47-20.58 464.25-21.35 463.03-22.12 461.42-22.56 459.81-23 457.88-23L457.88-23Q455.83-23 454.14-22.53 452.46-22.07 451.19-21.29 449.92-20.51 449.08-19.48 448.24-18.46 447.85-17.31L447.85-17.31Z" opacity="1" transform="matrix(1,0,0,1,0,0)" fill="#2a160c" class="wordmark-text-0" data-fill-palette-color="primary" id="text-0"></path></svg></g></svg></g></svg></g></svg></g></svg></g></svg></g></svg></g><path d="M226.815 106.988L226.815 41.272 391.471 41.272 391.471 205.928 226.815 205.928 226.815 140.212 228.729 140.212 228.729 204.014 389.557 204.014 389.557 43.186 228.729 43.186 228.729 106.988Z" fill="#2a160c" stroke="transparent" data-fill-palette-color="tertiary"></path></svg></g><defs></defs></svg><rect width="395.52" height="247.2" fill="none" stroke="none" visibility="hidden"></rect></g></svg></g></svg>